<?xml version="1.0" encoding="utf-8"?>
<!-- Generator: Adobe Illustrator 22.0.1, SVG Export Plug-In . SVG Version: 6.00 Build 0)  -->
<svg version="1.1" id="Layer_1" xmlns="http://www.w3.org/2000/svg" xmlns:xlink="http://www.w3.org/1999/xlink" x="0px" y="0px"
	 viewBox="0 0 740.277771 258.0471191" enable-background="new 0 0 740.277771 258.0471191" xml:space="preserve">
<g>
	<path fill="#3A88B9" d="M263.7163696,202.4382629c0,11.1328583,2.5175781,20.3262329,7.5335693,27.5617065
		c5.0350952,7.2168121,11.3569031,10.8343964,18.9653625,10.8343964c7.4403992,0,13.4450073-3.09552,18.051178-9.2678528
		c4.6061401-6.172699,6.9184265-14.3218842,6.9184265-24.4289093c0-11.1142426-2.5175476-20.2706299-7.5708618-27.4502106
		c-5.0350952-7.1982117-11.4127808-10.7971191-19.0957642-10.7971191c-7.3848572,0-13.3709412,3.076828-17.9394531,9.2308807
		C266.0099182,184.2749329,263.7163696,192.3868103,263.7163696,202.4382629L263.7163696,202.4382629z M245.7024231,204.8809052
		c0-6.4708252,1.0999908-12.2142792,3.2818298-17.2307129c2.1817627-4.9977875,5.5384064-9.4358521,10.0514526-13.2959747
		c3.8974304-3.3195038,8.4476318-5.8556519,13.6504211-7.6271362c5.2027283-1.7715149,10.7971191-2.6479645,16.7644958-2.6479645
		c5.9674072,0,11.5803833,0.8764496,16.8204346,2.6479645c5.2403259,1.7714844,9.8088684,4.3076324,13.7062683,7.6271362
		c4.475769,3.8228607,7.8138428,8.2236481,9.9769592,13.2215118c2.1631775,4.978775,3.2445374,10.7598114,3.2445374,17.3051758
		c0,6.6016541-1.0813599,12.4009552-3.2445374,17.380127c-2.1631165,4.9977722-5.5011902,9.3799896-9.9769592,13.1656036
		c-3.8973999,3.3567047-8.4659424,5.911499-13.7062683,7.6829834c-5.2400513,1.7715302-10.8530273,2.6479645-16.8204346,2.6479645
		c-5.9673767,0-11.5617676-0.8764343-16.7644958-2.6479645c-5.2027893-1.7714844-9.7529907-4.3262787-13.6504211-7.6829834
		c-4.5130463-3.8228607-7.8696899-8.242691-10.0514526-13.2401428
		C246.8024139,217.1700897,245.7024231,211.4079742,245.7024231,204.8809052L245.7024231,204.8809052z M328.2941895,168.6662445
		V165.64534c3.7483215,0.1121368,7.4780579,0.1867218,11.207428,0.2425995
		c3.7110901,0.0558777,7.3848572,0.0931091,11.0397034,0.0931091c3.6738586,0,7.3848572-0.0372314,11.1142578-0.0931091
		c3.7297058-0.0558777,7.4593811-0.1304626,11.1701355-0.2425995v3.0209045
		c-3.5243835,0.6901855-6.3214111,1.4547882-8.3727417,2.2753143c-2.0514221,0.8206177-3.4871826,1.7342987-4.289093,2.7597809
		c-0.8578186,1.0445099-1.5292664,3.0395966-1.9768066,5.9674377c-0.466156,2.9463959-0.6897583,6.8065338-0.6897583,11.6176453
		v15.4032745c0,6.3031006,0.2980957,11.0024872,0.8764648,14.1169434c0.5778809,3.1141357,1.5661926,5.7248383,2.9460449,7.850708
		c2.1072083,3.1327362,5.0350647,5.5571289,8.7461548,7.2540894c3.7110596,1.7156372,7.9442139,2.5734253,12.7180481,2.5734253
		c3.6175842,0,6.8997498-0.7087555,9.8834534-2.1258698c2.9837036-1.41716,5.3517456-3.4125977,7.1050415-5.967392
		c1.3426208-1.9582214,2.3494263-4.6248169,2.9837341-7.9629211c0.6337585-3.3566895,0.9509277-7.6080475,0.9509277-12.7362976
		c0-12.307785-0.2984619-21.0166626-0.8764954-26.1448669c-0.5782776-5.1096344-1.5665588-8.5035858-2.9464417-10.1819611
		c-0.9885254-1.211792-2.6478882-2.2003784-4.9790955-3.002243c-2.3308716-0.80159-5.1468811-1.3612823-8.4290771-1.6970673
		V165.64534c2.9837036,0.1121368,5.948822,0.1867218,8.8766174,0.2425995
		c2.9277649,0.0558777,5.8555603,0.0931091,8.7833557,0.0931091c2.9092102,0,5.8366394-0.0372314,8.78302-0.0931091
		c2.9651489-0.0558777,5.8929138-0.1304626,8.802063-0.2425995v3.0209045
		c-2.4616394,0.5410767-4.3821716,1.1749725-5.7624817,1.8650818c-1.3797913,0.6897736-2.4052734,1.5289154-3.0581665,2.4989319
		c-0.9323425,1.3239594-1.6410828,3.5430298-2.0885925,6.694397c-0.4661865,3.1517639-0.8392029,9.5852814-1.1745911,19.2633972
		c-0.0372925,1.4174805-0.0935059,3.5060883-0.1680908,6.2286377c-0.391571,13.986084-2.1258545,23.272934-5.184082,27.8601074
		c-2.7410889,4.1959076-6.5453491,7.3472748-11.4126892,9.4921265c-4.8670044,2.1255493-10.6480713,3.1886597-17.3424683,3.1886597
		c-4.6434326,0-8.9511108-0.522049-12.9606934-1.5665131c-4.0091858-1.025528-7.3845215-2.4989166-10.1256104-4.3822021
		c-3.7483521-2.5920868-6.3776855-5.7807159-7.8883362-9.5477295c-1.510376-3.7669678-2.2750244-9.3054199-2.2750244-16.6340942
		V189.813385c0-5.0350952-0.1489868-8.7085114-0.466156-11.0397186c-0.2984619-2.3308411-0.8204956-3.9905853-1.5479126-4.979126
		c-0.7646179-1.0441437-2.1445313-1.9951324-4.1399231-2.8342743
		C334.1498108,170.1210327,331.5391235,169.3564301,328.2941895,168.6662445L328.2941895,168.6662445z M421.4043884,216.3681335
		l3.0209961-0.484787c2.4053345,7.7947998,5.8179932,13.8743591,10.2377625,18.256546
		c4.4195251,4.3822174,9.3050842,6.5826569,14.6945496,6.5826569c3.8228455,0,6.8811035-1.1935577,9.1936646-3.5989227
		c2.3122559-2.4057465,3.4685364-5.6130371,3.4685364-9.6225891c0-5.4263153-5.5384827-11.3192139-16.6154785-17.6968842
		l-1.3053589-0.7459869c-6.9373779-4.0464783-11.655304-7.6829834-14.1538391-10.8903198
		c-2.4802246-3.1889496-3.7297363-6.9187012-3.7297363-11.1331787c0-6.6385651,2.666626-12.1211243,8.0001831-16.447464
		c5.3330994-4.3449097,12.1769409-6.5080872,20.5128174-6.5080872c3.5989685,0,7.0115051,0.428894,10.2378235,1.3053894
		c3.2259216,0.8764496,6.3400269,2.2376862,9.3610229,4.0463867l-1.678009,20.0467377h-3.4689026
		c-1.0627136-6.657135-2.9460144-11.7294464-5.6502075-15.2352142c-2.7225037-3.4874725-6.1351013-5.240387-10.2564697-5.240387
		c-3.4498901,0-6.377655,1.1562805-8.7457886,3.4684601c-2.3684692,2.3125916-3.5434265,5.1469116-3.5434265,8.5035553
		c0,5.3894958,5.5198669,11.3568878,16.5596008,17.9022522l1.5293274,0.876358
		c7.850708,4.6248169,12.9043579,8.5222168,15.1792908,11.6926422c2.2939758,3.1699677,3.4312744,7.0301361,3.4312744,11.580368
		c0,6.6385193-2.7038574,12.1024933-8.1119385,16.3915253c-5.4077454,4.3076782-12.3264465,6.4522095-20.7364502,6.4522095
		c-4.3263245,0-8.5408325-0.5406952-12.6435242-1.6410828c-4.102356-1.1000061-8.0932617-2.7597809-11.9907532-4.9788055
		c-0.7273254-4.475708-1.3239136-8.5780945-1.7900696-12.3078003
		C421.9637146,223.2119751,421.6280212,219.6876373,421.4043884,216.3681335L421.4043884,216.3681335z M484.2669983,243.6317139
		l-0.0559082-3.0209656c5.5571289-0.727356,9.2496033-2.2749176,11.0770264-4.6061554
		c1.8273621-2.3495026,2.7410278-7.9252167,2.7410278-16.7458954v-29.2027283
		c0-8.8206329-0.9136658-14.4150543-2.7410278-16.7648621c-1.8274231-2.3495483-5.5198975-3.8973999-11.0770264-4.6248627V165.64534
		h1.6969604c11.4127808,0.1494446,19.7854919,0.223938,25.1003723,0.223938c6.414978,0,12.8485718-0.0372162,19.2820435-0.1304169
		c6.4335938-0.0935211,12.9790039-0.2425537,19.6550903-0.4289398l-1.9022217,20.4756775h-3.4685669
		c-0.3356934-5.725235-2.0137329-9.734436-5.0909424-12.0097504c-3.0582886-2.2935791-8.3727417-3.4312286-15.9625854-3.4312286
		h-10.2751465v29.203125h11.0397949c5.2213135,0,8.9883423-0.8019104,11.3005981-2.4243927
		c2.3125-1.6224518,3.8973389-4.475296,4.7365112-8.5407867h2.8905029
		c-0.2235718,3.8228607-0.3730469,7.2354279-0.4848022,10.2564545c-0.1118164,3.0209503-0.1676636,5.6874847-0.1676636,7.9815063
		c0,1.9205017,0.0558472,3.8228149,0.1676636,5.7061768c0.1117554,1.8649902,0.2612305,3.6924286,0.4848022,5.4825287h-3.2258911
		c-0.9885864-4.3635712-2.5361328-7.3658905-4.6806641-8.9883423c-2.1259155-1.6224365-5.7997437-2.4243927-11.0210571-2.4243927
		h-11.0397949v14.0980072c0,4.6247711,0.1304932,7.9069672,0.4103394,9.8834076
		c0.2798462,1.9582062,0.7646484,3.3939514,1.4544067,4.3080292c1.0259399,1.3985291,2.5175171,2.4240265,4.5129395,3.1141205
		c1.9765015,0.6897278,4.4007568,1.0441284,7.2354736,1.0441284c7.2540894,0,12.9230347-1.7342224,17.0072021-5.1841125
		c4.0836182-3.4684753,6.9369507-8.9324341,8.5408325-16.4101715h3.3562012v1.65979
		c0,3.4871216-0.2980347,7.3099365-0.9136353,11.4309387c-0.6152954,4.1399841-1.5475464,8.6157074-2.7783813,13.4268188
		c-6.2285767-0.1494141-12.9419556-0.2612305-20.1212158-0.3357391c-7.1796265-0.0745239-15.1425171-0.1118164-23.8882446-0.1118164
		c-6.4148865,0-11.2822876,0-14.6013184,0.018631C490.1412048,243.5571899,487.0830383,243.5944214,484.2669983,243.6317139
		L484.2669983,243.6317139z"/>
	<path fill="#3A88B9" d="M33.0296936,195.9127197h5.1803818v-37.4033966h-5.1803818V195.9127197L33.0296936,195.9127197z
		 M59.1816673,195.9127197h4.7142334V164.15625l19.0126228,31.7564697h6.6310577v-37.4033966h-4.7660065v30.9277039
		l-18.3910828-30.9277039h-7.2008247V195.9127197L59.1816673,195.9127197z"/>
	<path fill="#3A88B9" d="M3.1152205,140.6608429v-4.6203156c8.7554703-0.9408875,14.5450974-3.22258,17.4255676-6.8162842
		c2.8804932-3.5646591,4.3065567-12.1777725,4.3065567-25.8102493V58.8661232c0-6.673542-0.2567139-12.0637589-0.798542-16.1705704
		c-0.5134678-4.1068077-1.340374-6.9872589-2.4526978-8.6701584c-1.3403721-1.9961777-3.450985-3.6219864-6.3601608-4.8766689
		c-2.9087954-1.2550011-6.930275-2.310297-12.1207237-3.1372032v-4.449255
		c7.899899-0.5418301,15.2009411-0.9413223,21.846159-1.1693516c6.6452179-0.2567139,12.719944-0.3708076,18.1671257-0.3708076
		c14.0886383,0,25.5251961,0.6562443,34.2806664,1.9679337c8.7841492,1.3120499,16.6270065,3.4509659,23.5289764,6.4741554
		c11.4648972,4.8483868,20.3914108,11.9780254,26.7798538,21.4183636c6.359787,9.4400215,9.5540314,20.27742,9.5540314,32.455513
		c0,17.4826126-6.5308075,31.5999146-19.5928497,42.2945786c-13.0620041,10.6949844-30.4592667,16.0281906-52.191391,16.0281906
		H3.1152205L3.1152205,140.6608429z M48.1192284,27.3801765v78.857254c0,5.7326202,0.1997452,9.9248047,0.6275215,12.5489426
		c0.4277954,2.5950165,1.1693306,4.8196182,2.2246284,6.6735382c1.5401192,2.6807098,3.8500748,4.7056122,6.930294,6.1029816
		c3.0515137,1.3977814,6.730545,2.081955,11.0371017,2.081955c11.7503357,0,21.3900604-4.4488983,28.9474792-13.3187561
		c7.5578156-8.8981934,11.3225632-20.3344269,11.3225632-34.394722c0-17.9673615-5.1338272-31.8849525-15.4293747-41.7243843
		C83.5125809,34.3961639,68.2829285,28.7779579,48.1192284,27.3801765L48.1192284,27.3801765z"/>
	<path fill="#3A88B9" d="M123.3533325,255.9018707l-0.074913-4.0285797
		c7.4110031-0.9699402,12.3346329-3.0339813,14.7716599-6.1425171c2.4370422-3.1334839,3.6555634-10.5690765,3.6555634-22.3316956
		v-38.9680481c0-11.7626343-1.2185211-19.1982117-3.6555634-22.3316956
		c-2.437027-3.1335449-7.3606567-5.197525-14.7716599-6.1671295v-4.0289764
		c4.9735641,0.1494293,9.8975906,0.2489624,14.7716599,0.3234253c4.8990479,0.0745392,9.798111,0.1244812,14.6971436,0.1244812
		c4.9240265,0,9.8230743-0.049942,14.7221222-0.1244812c4.9236145-0.0744629,9.797699-0.173996,14.6721802-0.3234253v4.0289764
		c-4.9735718,0.8205261-8.7536163,1.7655029-11.3400726,2.8346405c-2.6110535,1.0694122-4.5010834,2.4123993-5.6700287,4.0289001
		c-1.1685944,1.4421539-1.9891205,3.6556091-2.4370575,6.5901337c-0.4724884,2.9341278-0.6960754,7.9576263-0.6960754,15.0451508
		v13.1302032h54.0136108v-13.1302032c0-7.0875244-0.2489624-12.1110229-0.7214661-15.0451508
		c-0.4970551-2.9345245-1.293045-5.1479797-2.4120789-6.5901337c-1.1934967-1.6165009-3.10849-2.9594879-5.6949921-4.0289001
		c-2.6110687-1.0691376-6.3661194-2.0141144-11.314682-2.8346405v-4.0289764
		c4.9985046,0.1494293,9.9221954,0.2489624,14.7962189,0.3234253c4.8495483,0.0745392,9.7235718,0.1244812,14.647583,0.1244812
		c4.8990936,0,9.7981415-0.049942,14.6972046-0.1244812c4.8986511-0.0744629,9.797699-0.173996,14.647171-0.3234253v4.0289764
		c-7.3859863,0.9696045-12.2850952,3.0335846-14.7221222,6.1671295c-2.4120331,3.1334839-3.6306152,10.5690613-3.6306152,22.3316956
		v38.9680481c0,11.762619,1.2185822,19.1982117,3.6306152,22.3316956c2.437027,3.1085358,7.3361359,5.1725769,14.7221222,6.1425171
		v4.0285797c-4.7995605-0.1490631-9.6736298-0.2734985-14.5727234-0.3480377
		c-4.8990173-0.0749054-9.8230591-0.0994873-14.7716522-0.0994873c-4.973526,0-9.8725739,0.0245819-14.7220764,0.0994873
		c-4.8740692,0.0745392-9.7481689,0.1989746-14.6472168,0.3480377l-0.0745087-4.0285797
		c4.9485626-0.8704681,8.7036133-1.8404388,11.314682-2.9095306c2.5865021-1.069458,4.5014954-2.4124451,5.6949921-4.0039673
		c1.1190338-1.417511,1.9150238-3.6056213,2.4120789-6.5651245c0.4725037-2.9591064,0.7214661-7.9576569,0.7214661-14.9955902
		v-16.8852997H161.998291v16.8852997c0,7.0379333,0.223587,12.0364838,0.6960754,14.9955902
		c0.447937,2.9595032,1.2684631,5.1476135,2.4370575,6.5651245c1.1689453,1.5915222,3.0589752,2.9345093,5.6700287,4.0039673
		c2.5864563,1.0690918,6.3665009,2.0390625,11.3400726,2.9095306v4.0285797
		c-4.8245544-0.1490631-9.673996-0.2734985-14.5976715-0.3480377c-4.8990326-0.0749054-9.8480072-0.0994873-14.7966309-0.0994873
		c-4.9485779,0-9.8726044,0.0245819-14.7716675,0.0994873C133.1014709,255.6283722,128.227417,255.7528076,123.3533325,255.9018707
		L123.3533325,255.9018707z"/>
	<path fill="#3A88B9" d="M17.6655331,240.7463837v-32.9999084h12.5369644v-4.4034424H0v4.4034424h12.5369654v32.9999084H17.6655331
		L17.6655331,240.7463837z M46.511673,203.3430328v37.4033508h5.180378v-16.8882751h17.7691612v16.8882751h5.1807556v-37.4033508
		h-5.1807556v16.059845H51.6920509v-16.059845H46.511673L46.511673,203.3430328z M94.6812057,240.7463837h23.8818741v-4.5588226
		H99.8616104v-12.4333496h17.4065704v-4.3513336H99.8616104v-11.6564026h18.287117v-4.4034424H94.6812057V240.7463837
		L94.6812057,240.7463837z"/>
	<polygon fill-rule="evenodd" clip-rule="evenodd" fill="#3A88B9" points="356.7233887,106.0850677 356.7233887,139.295105 
		363.5515747,139.295105 363.5515747,106.0850677 356.7233887,106.0850677 	"/>
	<path fill="#3A88B9" d="M162.8143768,99.3410416c0,11.1329041,2.5175171,20.3262024,7.5335541,27.5616684
		c5.0350647,7.2168579,11.3568573,10.8343964,18.9653168,10.8343964c7.4404755,0,13.4450531-3.0954895,18.0512085-9.2678375
		c4.6061554-6.1727142,6.9184265-14.321907,6.9184265-24.4289169c0-11.1141739-2.5175476-20.2705994-7.5708618-27.4502258
		c-5.0350952-7.198204-11.4127655-10.7971191-19.0957489-10.7971191c-7.384903,0-13.3709106,3.0769043-17.9394379,9.2309265
		C165.1079559,81.1777039,162.8143768,89.2896271,162.8143768,99.3410416L162.8143768,99.3410416z M144.8003998,101.7836838
		c0-6.4707794,1.1000366-12.2142334,3.2817993-17.2306747c2.1817932-4.9977798,5.5384827-9.4359283,10.0514832-13.296051
		c3.8973999-3.3194199,8.4476471-5.8555832,13.6504211-7.6270981c5.2027435-1.7714806,10.7971191-2.6479721,16.7645111-2.6479721
		c5.9674225,0,11.5804138,0.8764915,16.8204193,2.6479721c5.240387,1.7715149,9.8089142,4.3076782,13.7062683,7.6270981
		c4.475769,3.8228989,7.8138428,8.223732,9.9769897,13.2215118c2.1631012,4.9788132,3.2445221,10.7598495,3.2445221,17.3052139
		c0,6.6016541-1.0814209,12.4009476-3.2445221,17.3801575c-2.163147,4.9977493-5.5012207,9.3799973-9.9769897,13.1655502
		c-3.8973541,3.3567657-8.4658813,5.911499-13.7062683,7.6830292c-5.2400055,1.7715149-10.8529968,2.6479187-16.8204193,2.6479187
		c-5.967392,0-11.5617676-0.8764038-16.7645111-2.6479187c-5.202774-1.7715302-9.7530212-4.3262634-13.6504211-7.6830292
		c-4.5130005-3.8228149-7.8696899-8.2426605-10.0514832-13.2401276
		C145.9004364,114.0728683,144.8003998,108.3108368,144.8003998,101.7836838L144.8003998,101.7836838z M312.6513062,66.6694565
		v22.2843857h-3.4684753c-1.7901306-7.7575607-4.6993408-13.5195847-8.7458191-17.2865982
		c-4.046814-3.7669373-9.2868042-5.6502609-15.7389832-5.6502609c-8.0932617,0-14.8439331,3.2445602-20.2330017,9.7153473
		c-5.3894958,6.4894409-8.0932922,14.6949539-8.0932922,24.6342773c0,4.1213379,0.4847717,8.0559998,1.473053,11.8043594
		c0.9881897,3.7479172,2.4243774,7.235466,4.3262329,10.4240646c2.8346863,4.7738495,6.3591003,8.4849701,10.5921936,11.0956421
		c4.2331848,2.629303,8.802063,3.9346619,13.7063599,3.9346619c5.7996521,0,10.9838257-2.0886078,15.5899658-6.2468567
		c4.5871582-4.1772919,8.5594482-10.4058914,11.8974609-18.7040787l3.3936157,0.8764114
		c-0.9881897,4.9788132-2.0696106,9.5103836-3.2445679,13.5572586c-1.1748352,4.0650864-2.4802246,7.682991-3.8973999,10.8530045
		c-3.4498291,1.5666046-7.2354126,2.7411194-11.356781,3.5243835c-4.1213379,0.7832947-8.540802,1.174881-13.2773743,1.174881
		c-14.4337158,0-25.8836975-3.5802155-34.3682404-10.7411957c-8.4849396-7.1609268-12.7367249-16.8207855-12.7367249-28.979187
		c0-5.8369598,1.0068665-11.2073975,3.0023651-16.11203c2.0136719-4.9228821,4.9601135-9.2867737,8.8579559-13.1283188
		c4.2513428-4.1395874,9.4171906-7.3286667,15.5150299-9.5290451c6.0791931-2.2003746,12.7180786-3.3007622,19.934906-3.3007622
		c4.6243896,0,9.1746216,0.4851418,13.6499939,1.4547501C303.9055481,63.2941551,308.3250427,64.7299271,312.6513062,66.6694565
		L312.6513062,66.6694565z M338.0315247,140.5344696l-0.0558777-3.0209045
		c5.948822-0.5780182,9.8833923-2.0514221,11.822998-4.4194946c1.9205933-2.3684692,2.8902283-8.0187607,2.8902283-16.9325943
		l-0.0559387-48.3543625c-0.4289246-0.0372696-0.932373-0.0744934-1.4729919-0.0935135
		c-0.5407715-0.0186157-1.3426819-0.0186157-2.4057617-0.0186157c-7.2727356,0-12.8112488,1.3802109-16.6341248,4.1586075
		c-3.822876,2.7787476-6.4708557,7.3100052-7.9624634,13.6317978l-3.2449341-0.5407486l2.4802856-25.8650131l2.125885-0.3357468
		c0.9509277,1.4174805,1.939209,2.4057007,2.9837036,2.965023c1.0627136,0.559761,2.6479187,0.839222,4.79245,0.839222h2.9464111
		h50.4802551c2.349884,0,4.1027832-0.2794609,5.2028198-0.839222c1.1189575-0.5593224,2.1444397-1.5475426,3.0958252-2.965023
		l2.2190552,0.3357468l2.4425964,25.8650131l-3.3563232,0.5407486c-1.4920349-6.3591003-4.1399841-10.9089355-7.9255981-13.6504593
		c-3.7855835-2.7597351-9.3054504-4.139946-16.5595398-4.139946c-1.0627441,0-1.8646545,0-2.405426,0.0186157
		c-0.5410156,0.0190201-1.0631104,0.0562439-1.5292969,0.0935135v48.3543625c0,8.9138336,0.9696045,14.5641251,2.8905334,16.9325943
		c1.939209,2.3680725,5.8556213,3.8414764,11.7667236,4.4194946v3.0209045
		c-3.6547852-0.1117706-7.3472595-0.2048798-11.0769348-0.2612152c-3.7479553-0.0558319-7.4590454-0.0744934-11.1887512-0.0744934
		c-3.7107239,0-7.421814,0.0186615-11.1329346,0.0744934C345.4723511,140.3295898,341.761261,140.422699,338.0315247,140.5344696
		L338.0315247,140.5344696z M420.4001465,99.3410416c0,11.1329041,2.5175781,20.3262024,7.5335999,27.5616684
		c5.0350647,7.2168579,11.3568115,10.8343964,18.965271,10.8343964c7.4404602,0,13.4450684-3.0954895,18.051239-9.2678375
		c4.6061401-6.1727142,6.9183655-14.321907,6.9183655-24.4289169c0-11.1141739-2.5175476-20.2705994-7.5708008-27.4502258
		c-5.0350952-7.198204-11.4127808-10.7971191-19.0957642-10.7971191c-7.3848877,0-13.3709106,3.0769043-17.9394226,9.2309265
		C422.6936951,81.1777039,420.4001465,89.2896271,420.4001465,99.3410416L420.4001465,99.3410416z M402.3862,101.7836838
		c0-6.4707794,1.0999756-12.2142334,3.2817383-17.2306747c2.1818237-4.9977798,5.5385437-9.4359283,10.0515442-13.296051
		c3.8973999-3.3194199,8.4476624-5.8555832,13.6503601-7.6270981c5.2027893-1.7714806,10.7971191-2.6479721,16.7645569-2.6479721
		c5.9673767,0,11.5804138,0.8764915,16.8204041,2.6479721c5.2404175,1.7715149,9.8089294,4.3076782,13.7062988,7.6270981
		c4.475769,3.8228989,7.8137817,8.223732,9.9769897,13.2215118c2.1630859,4.9788132,3.2445068,10.7598495,3.2445068,17.3052139
		c0,6.6016541-1.0814209,12.4009476-3.2445068,17.3801575c-2.163208,4.9977493-5.5012207,9.3799973-9.9769897,13.1655502
		c-3.8973694,3.3567657-8.4658813,5.911499-13.7062988,7.6830292c-5.2399902,1.7715149-10.8530273,2.6479187-16.8204041,2.6479187
		c-5.9674377,0-11.5617676-0.8764038-16.7645569-2.6479187c-5.2026978-1.7715302-9.7529602-4.3262634-13.6503601-7.6830292
		c-4.5130005-3.8228149-7.8697205-8.2426605-10.0515442-13.2401276
		C403.4861755,114.0728683,402.3862,108.3108368,402.3862,101.7836838L402.3862,101.7836838z M490.236969,140.5344696
		l-0.0563049-3.0209045c5.7438354-0.6156464,9.52948-2.1072998,11.3755188-4.4571228
		c1.8460083-2.3494873,2.778717-7.9811325,2.778717-16.9135818V87.0705185c0-4.3821793-0.1679993-7.9069214-0.5223694-10.5921631
		c-0.3353882-2.6666183-0.8578186-4.56884-1.5476379-5.6502533c-0.9136658-1.323967-2.3125916-2.3871231-4.1958618-3.207695
		c-1.8833008-0.820488-4.51297-1.510231-7.8883667-2.0513v-2.9088516
		c7.9629517-0.2425537,14.6018066-0.4102859,19.9162903-0.5223732c5.3149719-0.093235,9.3427429-0.1491203,12.0652161-0.1491203
		c11.8230591,0,20.6065063,1.6224823,26.3685303,4.8670425c5.7437134,3.226265,8.6153564,8.186821,8.6153564,14.8439102
		c0,3.8601303-1.230835,7.3658981-3.6921387,10.5362778c-2.4616089,3.1700592-6.0046387,5.7621078-10.6293945,7.813446
		c5.8927612,11.3568802,11.9906616,20.2334518,18.312439,26.5920639
		c6.3214111,6.3590622,13.1279297,10.4617844,20.4007568,12.3264084l-0.0559692,3.0210266
		c-5.9301147-0.2236176-10.8343506-0.5220947-14.694458-0.8951111c-3.8602295-0.3916321-7.0678711-0.9137115-9.6598511-1.5661469
		c-2.7038574-0.7274628-5.2959595-2.1259308-7.8134766-4.1959229c-2.4989624-2.0886383-4.9978027-4.9046326-7.4780273-8.4849319
		c-2.1445313-3.0582123-4.4940186-6.7133789-7.0487671-11.0024414c-2.5362549-4.2703705-4.1959839-6.9183807-4.9606323-7.8879852
		c-0.7641602-0.9885788-1.9391479-1.7528229-3.524353-2.2753143c-1.585144-0.522049-3.8042603-0.8764496-6.6385498-1.0627213
		v11.0396729c0,5.967392,0.1491089,9.9207077,0.4661865,11.8226929c0.2981567,1.9209137,0.8205566,3.3566895,1.5475464,4.2889862
		c1.0259399,1.3243561,2.81604,2.4430389,5.3707886,3.3939514c2.5735474,0.951355,5.9301758,1.7342529,10.0698242,2.3498993
		l-0.0559082,3.0209045c-4.102356-0.1117706-8.1677856-0.2048798-12.177002-0.2612152
		c-4.0281982-0.0558319-8.0001221-0.0744934-11.9161987-0.0744934c-3.9159851,0-7.7947693,0.0186615-11.5803833,0.0744934
		C497.5842285,140.3295898,493.8731995,140.422699,490.236969,140.5344696L490.236969,140.5344696z M519.6636353,66.3523254
		v34.2378616c6.7689819-0.8388214,11.8599243-2.7038574,15.2539063-5.5944595
		c3.4126587-2.8901138,5.1095581-6.768898,5.1095581-11.636261c0-4.9414978-1.8087769-8.9324875-5.4267578-11.9906998
		C530.9828491,68.3105927,526.0037231,66.6508026,519.6636353,66.3523254L519.6636353,66.3523254z"/>
	<path fill-rule="evenodd" clip-rule="evenodd" fill="#129B9E" d="M600.5115356,116.1033859v22.4001999h27.4483643
		c0-21.6952133-1.2807007-14.9657898,3.6932373-20.9160461l9.4246826-10.1360245
		c0.7541504-0.980072,1.0564575-1.4257431,2.026062-2.0752029c0,3.7739868-0.3041382,4.6784439-0.3280029,6.6128006
		l-0.605896,20.2169571c-0.0252686,2.0551147-0.3473511,2.6699219-0.3259888,6.615097
		c0.0140991,2.596817-0.2977295,3.953598-0.3014526,6.6391907c-0.003418,2.3178406-0.9200439,3.5624084-1.6384888,5.3029633
		c-0.3421021,0.8291473-0.6101074,1.4216461-1.03479,2.4355927c-0.4557495,1.0873108-0.8716431,1.5535126-1.1288452,2.6572723
		c10.7476196,0,15.46521-0.6301727,22.2791748,3.9071045c0.84375,0.5618896,1.0546875,0.7523193,1.7987061,1.3560181
		c1.8927612,1.5356293,3.4630127,3.2053986,4.7351685,5.361084c5.118042,8.6731262,2.2675171,10.9715118,4.5189209,15.3574219
		l6.9910278,12.8854065c0.8447876,1.3873138,1.5557251,2.7974091,2.3703003,4.2551727l23.347229,42.9075165
		c4.0740356,7.279068,6.8430786,16.1422272,16.9370117,16.1612091c1.383606,0.0026245,4.3435059-0.7698669,5.3667603-1.2270813
		c3.0406494-1.3586121,5.258606-3.4234009,6.7792969-6.4719391c1.2218628-2.4496918,1.4190674-3.7468414,1.4190674-6.4682159
		c0-3.9290466-2.9226074-9.0002594-4.6270142-12.4095001l-22.1942749-45.953537
		c-0.8280029-1.8612976-1.9139404-3.8399811-2.8353271-5.6830292c-0.9517822-1.9023438-1.734314-3.7953339-2.734436-5.7844543
		c-1.0131836-2.0155487-11.1477661-22.8838959-11.1477661-22.9256592l2.0755615-25.6887817
		c0.1934204-1.3303375,0.2854614-3.258316,0.3982544-4.3341522c0.1428223-1.3623581,0.3656006-3.271759,0.3656006-4.3665771
		l9.8436279,14.7657318c2.7798462,4.1701508,11.7913208,18.9764709,15.4520264,21.4608459
		c5.706665,3.8731689,13.1898804,2.9255829,17.7028198-1.746521c2.2865601-2.3673553,3.4815674-5.2195129,3.6956177-8.1853027
		v-1.9716644c-0.1872559-2.6363678-1.1149292-5.2977448-2.7095337-7.7317657l-41.3331909-62.1501541
		c-3.5728149-5.4113998-7.4333496-5.7225113-13.5672607-7.2555733c-2.9129639-0.7281761-5.5262451-1.4048424-8.3258667-2.0860405
		c-2.7434082-0.667038-5.8031006-1.3000946-8.5449219-1.8661156c-5.0179443-1.0367203-11.3814087-3.0407219-16.4525757-0.0924301
		c-3.7077637,2.1556854-17.3104858,17.6272011-20.6742554,20.9715309c-1.3734741,1.3653717-2.293335,2.2376862-3.5028076,3.7536163
		c-0.9221802,1.156311-2.3300781,2.4027328-3.4390259,3.5016327l-17.022522,17.9979324
		C602.5796509,108.6282501,600.5115356,111.5807114,600.5115356,116.1033859L600.5115356,116.1033859z"/>
	<path fill-rule="evenodd" clip-rule="evenodd" fill="#129B9E" d="M646.8898315,27.7640629
		c0,7.0207996,3.1397705,14.4358768,7.8007202,19.3319225l3.5523071,3.0731392
		c11.1437378,8.0471306,25.8774414,7.0775261,35.9400024-2.5607567c4.6408081-4.4451218,8.2349243-11.3649864,8.2349243-17.9513493
		c0-5.3335705-0.1732178-9.5335331-2.7340088-14.3032885c-3.1681519-5.9006338-7.4456787-9.9028168-13.3511353-12.8350201
		C683.145813,0.9364677,679.6854858,0.1293395,676.1939087,0h-2.00177
		c-7.1222534,0.2575156-14.1796265,3.256475-19.1143799,8.1879444
		C650.2268066,13.0359297,646.8898315,20.3660774,646.8898315,27.7640629L646.8898315,27.7640629z"/>
	<path fill-rule="evenodd" clip-rule="evenodd" fill="#169C9E" d="M565.1446533,179.8666382v48.9021149
		c0,6.3854675,1.0288086,9.4154053,3.9146118,13.122757c2.0330811,2.6121826,6.7774658,5.8071594,11.229248,5.8071594h68.4633789
		c8.2904663,0,15.4591675-7.7549286,15.4591675-16.0904541v-54.5811157c0-8.3350983-7.1687012-16.0904541-15.4591675-16.0904541
		h-68.4633789c-4.4517822,0-9.196167,3.1954193-11.229248,5.8075714
		C566.1734619,170.4512024,565.1446533,173.4810944,565.1446533,179.8666382L565.1446533,179.8666382z"/>
	<path fill-rule="evenodd" clip-rule="evenodd" fill="#169C9E" d="M597.6411743,151.1561584v4.4171906h6.6253662
		c0-8.2073212-1.5806885-6.9410858,16.7213745-6.9410858c5.2802124,0,4.4168091,2.5667419,4.4168091,6.9410858h6.3101807
		c0-4.4887695,0.6618042-7.7727966-2.755188-10.8113098c-1.1578979-1.0292206-3.72229-2.4396515-5.7631226-2.4396515h-16.4060669
		c-3.706665,0-6.6992798,2.0804291-8.2636108,4.9873657C597.9381104,148.4037933,597.6411743,149.5989075,597.6411743,151.1561584
		L597.6411743,151.1561584z"/>
	<polygon fill-rule="evenodd" clip-rule="evenodd" fill="#FFFFFF" points="605.5283203,195.3261566 591.6465454,195.3261566 
		591.6465454,213.3095551 605.5283203,213.3095551 605.5283203,227.1914063 623.8272705,227.1914063 623.8272705,213.3095551 
		637.7091675,213.3095551 637.7091675,195.3261566 623.8272705,195.3261566 623.8272705,181.4439392 605.5283203,181.4439392 
		605.5283203,195.3261566 	"/>
</g>
<g>
</g>
<g>
</g>
<g>
</g>
<g>
</g>
<g>
</g>
<g>
</g>
</svg>
